<svg xmlns="http://www.w3.org/2000/svg" width="793.701" height="1122.52" viewBox="0 0 210 297"><path d="M39.687 115.231A36.248 36.248 0 003.44 151.48a36.248 36.248 0 0036.247 36.248 36.248 36.248 0 0036.248-36.248 36.248 36.248 0 00-2.318-12.627 5.554 5.554 0 01-1.23.723 5.554 5.554 0 01-7.27-2.974 5.554 5.554 0 01.472-5.184 9.01 9.01 0 01-8.707-5.51 9.01 9.01 0 01-.197-6.413 36.248 36.248 0 00-16.998-4.263zm0 23.284a12.965 12.965 0 0112.965 12.964 12.965 12.965 0 01-12.965 12.965 12.965 12.965 0 01-12.964-12.965 12.965 12.965 0 0112.964-12.964z" fill="#be7b4e"/><path d="M39.687 113.548c-20.272.011-36.952 15.962-37.87 36.213.187 2.76 1.428 6.74 4.053 6.236 3.075-.59 5.391-10.35 8.363-10.339 2.971.012 2.365 9.994 8.062 10.391 2.644.185 3.808-3.481 3.948-6.288a13.567 13.567 0 0113.444-11.848 13.567 13.567 0 0113.441 11.848c1.029 2.947 2.487 6.231 5.023 6.288 4.107.093 4.018-10.417 7.188-10.36 2.948.053 3.652 9.448 7.381 9.676 2.532.155 3.878-3.265 4.813-5.604a37.835 37.835 0 00-3.194-13.621 5.554 5.554 0 01-3.284 3.994 5.554 5.554 0 01-7.27-2.974 5.554 5.554 0 01.472-5.185 9.01 9.01 0 01-8.706-5.51 9.01 9.01 0 011.116-8.886 37.782 37.782 0 00-16.98-4.031z" fill="#683a3a"/><path d="M14.233 145.658c-1.69-.006-3.168 3.145-4.694 5.975-.32 6.16 1.219 12.32 5.13 17.47 12.385 18.477 45.423 15.636 53.014-5.73 1.437-3.36 2.133-6.917 2.19-10.483-1.571-2.856-2.54-7.165-4.534-7.201-1.825-.033-2.572 3.433-3.659 6.365.252 7.175-2.455 14.26-8.92 18.314-14.453 10.778-37.306-3.572-35.825-20.531-.767-2.21-1.39-4.174-2.702-4.179z" opacity=".365" fill="#f3f1f1"/><path style="line-height:normal;font-variant-ligatures:normal;font-variant-position:normal;font-variant-caps:normal;font-variant-numeric:normal;font-variant-alternates:normal;font-feature-settings:normal;text-indent:0;text-align:start;text-decoration-line:none;text-decoration-style:solid;text-decoration-color:#000;text-transform:none;text-orientation:mixed;white-space:normal;shape-padding:0;isolation:auto;mix-blend-mode:normal;solid-color:#000;solid-opacity:1" d="M39.686 112.047c-21.058.013-38.414 16.61-39.368 37.647a1.5 1.5 0 00.002.169c.106 1.554.469 3.37 1.277 4.93.405.78.927 1.514 1.693 2.055a3.809 3.809 0 002.863.622c1.486-.285 2.353-1.362 3.134-2.481.78-1.119 1.462-2.431 2.128-3.684.665-1.252 1.317-2.446 1.895-3.227.503-.68.823-.837.862-.876.086.093.245.311.419.675.368.771.757 2.022 1.242 3.348s1.071 2.75 2.044 3.97c.973 1.22 2.453 2.221 4.314 2.35a4.108 4.108 0 002.715-.805c.729-.545 1.244-1.263 1.637-2.028.77-1.502 1.106-3.233 1.192-4.788a12.05 12.05 0 0123.905.028 1.5 1.5 0 00.072.304c.53 1.518 1.171 3.172 2.12 4.574.95 1.402 2.377 2.676 4.286 2.719 1.666.038 2.95-1.09 3.709-2.281.759-1.192 1.24-2.579 1.69-3.903.45-1.323.867-2.592 1.273-3.383.204-.395.405-.657.509-.752.021-.02.013-.014.021-.023.013.01.019.013.058.047.121.103.33.35.55.713.438.726.916 1.874 1.428 3.08.511 1.207 1.056 2.477 1.821 3.575.765 1.098 1.896 2.145 3.452 2.24 1.953.12 3.425-1.184 4.335-2.518.91-1.334 1.496-2.86 1.962-4.026a1.5 1.5 0 00.106-.624 39.267 39.267 0 00-3.872-15.342 5.554 5.554 0 01-1.481 4.147 36.45 36.45 0 012.327 11.025c-.442 1.094-.946 2.288-1.52 3.129-.629.922-1.096 1.25-1.674 1.215-.31-.019-.665-.231-1.173-.961s-1.022-1.853-1.521-3.03c-.5-1.178-.983-2.404-1.622-3.462-.32-.529-.679-1.025-1.175-1.447-.496-.422-1.19-.765-1.955-.779-.81-.014-1.575.356-2.089.824-.514.469-.857 1.018-1.155 1.598-.597 1.161-1.009 2.504-1.446 3.789-.437 1.285-.902 2.505-1.38 3.256-.478.75-.723.902-1.11.894-.628-.014-1.198-.411-1.87-1.402-.667-.986-1.265-2.436-1.763-3.857-1.083-7.36-7.396-12.87-14.863-12.879a1.5 1.5 0 00-.004 0c-7.566.008-13.972 5.654-14.93 13.16a1.5 1.5 0 00-.01.114c-.062 1.23-.38 2.697-.872 3.656-.246.479-.527.818-.765.996-.238.178-.4.236-.71.215-.987-.07-1.568-.465-2.176-1.229-.61-.763-1.126-1.91-1.572-3.13-.447-1.221-.82-2.493-1.352-3.609-.266-.557-.57-1.09-1.048-1.562-.478-.47-1.221-.862-2.013-.865-1.564-.006-2.551 1.071-3.339 2.135-.788 1.065-1.464 2.345-2.133 3.605-.67 1.26-1.328 2.498-1.94 3.375-.612.877-1.187 1.24-1.238 1.25-.276.053-.355.025-.567-.125-.211-.15-.503-.488-.76-.985-.506-.976-.846-2.486-.936-3.682.932-19.418 16.909-34.67 36.36-34.683h.004a36.294 36.294 0 0116.639 4.037 9.01 9.01 0 011.648-2.515 39.244 39.244 0 00-18.286-4.523 1.5 1.5 0 00-.004 0z" color="#000" font-weight="400" font-family="sans-serif" overflow="visible" fill="#333"/><path d="M40.274 120.976c-.31.003-.62.01-.932.024-14.055-.286-25.133 10.938-28.63 23.882 2.3-1.92 5.507-2.423 7.163.443.158-.453.33-.907.527-1.36 3.642-8.84 12.85-15.326 22.516-15.018 10.419.006 17.698 8.32 19.984 17.822 1.423-2.66 3.602-4.66 6.655-2.894.626.355 1.12.86 1.53 1.45a33.07 33.07 0 00-1.393-4.34 5.554 5.554 0 01-4.933-3.395 5.554 5.554 0 01.262-4.825c-.094-.123-.193-.241-.289-.362a9.01 9.01 0 01-8.208-5.508 9.01 9.01 0 01-.6-2.21c-4.07-2.372-8.706-3.748-13.652-3.709z" opacity=".365" fill="#f2f2f2"/><rect ry=".753" y="113.315" x="-72.879" height="1.505" width="7.045" transform="rotate(-39.585)" fill="#f0f"/><rect ry=".753" y="119.186" x="-41.352" height="1.505" width="7.045" transform="rotate(-27.747)" fill="#ff0"/><rect ry=".753" y="103.005" x="75.165" height="1.505" width="7.045" transform="rotate(22.225)" fill="#d45500"/><rect ry=".753" y="120.96" x="-67.431" height="1.505" width="7.045" transform="rotate(-41.288)" fill="#0f0"/><rect ry=".753" y="67.316" x="122.159" height="1.505" width="7.045" transform="rotate(43.079)" fill="#04a"/><rect ry=".753" y="71.915" x="134.327" height="1.505" width="7.045" transform="rotate(40.758)" fill="#aa00d4"/><rect ry=".753" y="141.683" x="-79.997" height="1.505" width="7.045" transform="rotate(-54.653)" fill="#f06"/><rect ry=".753" y="-110.011" x="94.414" height="1.505" width="7.045" transform="rotate(135.22)" fill="#00f"/><rect ry=".753" y="122.023" x="-81.872" height="1.505" width="7.045" transform="rotate(-55.163)" fill="#2ad4ff"/><rect ry=".753" y="124.954" x="-58.88" height="1.505" width="7.045" transform="rotate(-44.858)" fill="#48373e"/><rect ry=".753" y="53.05" x="111.033" height="1.505" width="7.045" transform="rotate(45.133)" fill="#71c837"/><rect ry=".753" y="112.763" x="85.837" height="1.505" width="7.045" transform="rotate(29.509)" fill="red"/><rect ry=".753" y="114.152" x="71.845" height="1.505" width="7.045" transform="rotate(29.11)" fill="#0f0"/><rect width="7.045" height="1.505" x="-46.467" y="114.492" ry=".753" transform="rotate(-35.667)" fill="#f55"/></svg>